<?xml version="1.0" standalone="no"?>
<!DOCTYPE svg PUBLIC "-//W3C//DTD SVG 20010904//EN"
 "http://www.w3.org/TR/2001/REC-SVG-20010904/DTD/svg10.dtd">
<svg version="1.0" xmlns="http://www.w3.org/2000/svg"
 width="997.000000pt" height="997.000000pt" viewBox="0 0 997.000000 997.000000"
 preserveAspectRatio="xMidYMid meet">
<metadata>
Created by potrace 1.11, written by Peter Selinger 2001-2013
</metadata>
<g transform="translate(0.000000,997.000000) scale(0.100000,-0.100000)"
fill="#000000" stroke="none">
<path d="M3958 5960 c-307 -66 -503 -337 -512 -707 -10 -418 177 -696 512
-762 79 -15 247 -13 326 5 216 50 380 221 425 446 18 89 20 108 13 109 -26 5
-185 3 -188 -2 -2 -4 -6 -24 -9 -45 -9 -55 -14 -71 -45 -139 -52 -115 -163
-197 -292 -215 -239 -34 -430 87 -507 322 -29 88 -32 108 -36 238 -10 306 121
526 350 586 61 16 225 11 275 -8 109 -43 173 -99 214 -188 14 -30 26 -60 26
-67 0 -24 36 -29 178 -24 29 1 29 26 -2 112 -45 129 -132 225 -259 288 -45 22
-98 43 -117 46 -19 3 -44 8 -55 12 -44 13 -222 10 -297 -7z"/>
<path d="M5417 5964 c-38 -7 -90 -21 -115 -30 -53 -20 -164 -89 -203 -127
-139 -134 -218 -330 -223 -555 -9 -387 188 -677 515 -759 52 -13 275 -11 339
3 102 21 222 86 294 157 101 100 156 200 197 354 27 101 30 311 5 422 -61 277
-251 478 -501 532 -82 17 -225 19 -308 3z m271 -169 c227 -59 367 -291 357
-590 -4 -145 -25 -229 -83 -332 -145 -261 -524 -309 -732 -93 -110 114 -162
272 -155 470 9 280 130 472 339 541 63 20 206 22 274 4z"/>
<path d="M1379 5942 c-14 -3 -16 -72 -15 -715 l1 -712 375 -3 c233 -1 394 2
424 8 110 23 217 98 269 188 44 76 54 113 56 212 5 172 -77 287 -244 345 -17
6 -15 9 20 26 123 60 191 221 159 375 -15 73 -33 108 -78 156 -103 109 -155
119 -606 122 -190 1 -352 0 -361 -2z m701 -177 c96 -22 153 -96 153 -200 1
-111 -35 -170 -129 -208 -44 -19 -75 -21 -296 -25 l-248 -4 0 226 0 225 243
-3 c133 -2 258 -7 277 -11z m27 -614 c122 -30 186 -106 186 -225 0 -111 -60
-200 -156 -232 -40 -13 -97 -16 -310 -18 l-262 -1 -3 245 -2 245 247 -1 c160
-1 266 -5 300 -13z"/>
<path d="M6489 5942 c-15 -3 -16 -67 -16 -717 l0 -715 98 0 99 0 0 290 c0 225
3 290 13 291 6 0 125 2 262 3 329 3 388 17 486 116 77 78 110 170 110 309 1
222 -104 363 -303 412 -37 8 -155 13 -393 13 -187 1 -347 0 -356 -2z m668
-179 c87 -22 131 -56 161 -121 51 -111 27 -253 -53 -320 -61 -50 -91 -55 -352
-59 l-243 -5 0 262 0 261 216 -2 c150 -1 233 -6 271 -16z"/>
<path d="M7905 5670 c-59 -151 -110 -284 -115 -295 -5 -11 -29 -72 -54 -135
-24 -63 -96 -249 -160 -413 -64 -164 -116 -302 -116 -307 0 -6 41 -10 98 -10
l97 0 80 215 80 215 300 -2 300 -3 43 -120 c24 -66 59 -160 76 -210 l33 -90
106 -3 c63 -1 107 1 107 7 0 5 -47 130 -105 278 -308 791 -444 1135 -450 1141
-4 4 -53 7 -110 7 l-104 0 -106 -275z m233 33 c11 -32 43 -123 72 -203 29 -80
58 -163 66 -185 7 -22 26 -77 43 -122 20 -56 26 -83 18 -85 -18 -6 -446 -2
-452 3 -4 4 226 649 232 649 0 0 10 -26 21 -57z"/>
<path d="M2679 5143 c-1 -17 -1 -106 0 -135 l1 -23 290 0 290 0 0 83 c0 58 -4
82 -12 83 -7 0 -138 1 -290 2 -216 2 -278 -1 -279 -10z"/>
</g>
</svg>
